<svg width="512" height="512" viewBox="0 0 512 512" fill="none" xmlns="http://www.w3.org/2000/svg">
  <!-- Background Circle -->
  <circle cx="256" cy="256" r="256" fill="url(#gradient1)"/>

  <!-- Central Diamond -->
  <path d="M256 64L448 256L256 448L64 256L256 64Z" fill="white" opacity="0.95"/>

  <!-- Inner Diamond -->
  <path d="M256 128L384 256L256 384L128 256L256 128Z" fill="url(#gradient2)"/>

  <!-- Letter S -->
  <path d="M200 200C200 185 212 173 227 173H285C300 173 312 185 312 200C312 215 300 227 285 227H227C212 227 200 239 200 254C200 269 212 281 227 281H285C300 281 312 293 312 308C312 323 300 335 285 335H227C212 335 200 323 200 308"
        stroke="white"
        stroke-width="24"
        stroke-linecap="round"
        fill="none"/>

  <!-- Gradient Definitions -->
  <defs>
    <linearGradient id="gradient1" x1="0%" y1="0%" x2="100%" y2="100%">
      <stop offset="0%" style="stop-color:#2563EB;stop-opacity:1" />
      <stop offset="50%" style="stop-color:#1D4ED8;stop-opacity:1" />
      <stop offset="100%" style="stop-color:#1E40AF;stop-opacity:1" />
    </linearGradient>
    <linearGradient id="gradient2" x1="0%" y1="0%" x2="100%" y2="100%">
      <stop offset="0%" style="stop-color:#3B82F6;stop-opacity:0.8" />
      <stop offset="100%" style="stop-color:#1E40AF;stop-opacity:0.8" />
    </linearGradient>
  </defs>
</svg>